<?xml version="1.0" encoding="utf-8"?>
<?xml-stylesheet type="text/xsl" href="rss1.xsl"?>
<rss version="2.0" xmlns:atom="http://www.w3.org/2005/Atom" xmlns:content="http://purl.org/rss/1.0/modules/content/" xmlns:dc="http://purl.org/dc/elements/1.1/" xmlns:media="http://search.yahoo.com/mrss/">
<channel>
 <title>Getty</title>
 <link>http://www.gettyimg.com/</link>
 <atom:link href="http://www.gettyimg.com/" rel="self" type="application/rss+xml" />

 
                <item>
                <title><![CDATA[【Singles (lossless)】FLAC - Mushroomhead - Fall In Line. 2024, FLAC, Hi-Res]]></title>
                <link><![CDATA[https://sharemania.us/threads/mushroomhead-fall-in-line-2024-flac-hi-res.251137/]]></link>
                <description><![CDATA[<article>
<blockquote class="messageText SelectQuoteContainer ugc baseHtml">
<img src="https://lossless.ucoz.club/_ld/3/52392521.png" class="bbCodeImage LbImage" alt="[​IMG]" data-url="https://lossless.ucoz.club/_ld/3/52392521.png" style=""> <br>
<br>
Listen to and download - <a href="https://lossless.ucoz.club/load/id13/mushroomhead_fall_in_line_2024_flac_hi_res/13-1-0-389" target="_blank" class="externalLink" rel="nofollow">https://lossless.ucoz.club/load/id13/mushroomhead_fall_in_line_2024_flac_hi_res/13-1-0-389</a>
<div class="messageTextEndMarker">&nbsp;</div>
</blockquote>
</article>]]></description>
                <author><![CDATA[igorsm]]></author>
                </item>

                
                <item>
                <title><![CDATA[【Singles (lossless)】FLAC - Maria Daines - You Don't Love Me. FLAC, 2005]]></title>
                <link><![CDATA[https://sharemania.us/threads/maria-daines-you-dont-love-me-flac-2005.251136/]]></link>
                <description><![CDATA[<article>
<blockquote class="messageText SelectQuoteContainer ugc baseHtml">
<img src="https://lossless.ucoz.club/_ld/0/89778664.jpg" class="bbCodeImage LbImage" alt="[​IMG]" data-url="https://lossless.ucoz.club/_ld/0/89778664.jpg" style=""> <br>
<br>
Listen to and download - <a href="https://lossless.ucoz.club/load/id13/maria_daines_you_don_39_t_love_me_flac_2005/13-1-0-37" target="_blank" class="externalLink" rel="nofollow">https://lossless.ucoz.club/load/id13/maria_daines_you_don_39_t_love_me_flac_2005/13-1-0-37</a>
<div class="messageTextEndMarker">&nbsp;</div>
</blockquote>
</article>]]></description>
                <author><![CDATA[igorsm]]></author>
                </item>

                
                <item>
                <title><![CDATA[【HD Live Performances】WEB-RiP - Celine Dion - Hymne À L'amour [Paris 2024 Olympics Opening Ceremony 26 July 2024] 4K HLG DD5.1 HEVC [azamusic].mkv]]></title>
                <link><![CDATA[https://sharemania.us/threads/celine-dion-hymne-%C3%80-lamour-paris-2024-olympics-opening-ceremony-26-july-2024-4k-hlg-dd5-1-hevc-azamusic-mkv.251139/]]></link>
                <description><![CDATA[<article>
<blockquote class="messageText SelectQuoteContainer ugc baseHtml">
I've found the best 4k rip (so far) but to get better audio, i've merged Channel 9 Australia's broadcast DTV DD5.1 audio into it trying to get the best audio &amp; video. I reckon the outcome is pretty good!<br>
<br>
Please note this is using HLG BT2020 10bit colour scheme!<br>
<br>
Video: HVC1 3840x2160 50fps [V: hevc main 10 L5.1, yuv420p10le, 3840x2160 [default]]<br>
Audio: Dolby AC3 48000Hz 6ch 384kbps [A: ac3, 48000 Hz, 5.1(side), 384 kb/s]<br>
<br>
<div class="ToggleTriggerAnchor bbCodeSpoilerContainer">
<button type="button" class="button bbCodeSpoilerButton ToggleTrigger Tooltip JsOnly" data-target="> .SpoilerTarget"><span>Spoiler: <span class="SpoilerTitle">Media Info</span></span></button>
<div class="SpoilerTarget bbCodeSpoilerText">General<br>
Unique ID : 58575273479927171963909283792370966075 (0x2C112FF42CD3466E23BC04195D569E3B)<br>
Complete name : \\192.168.1.1\data\aza\Olympic_Games_Paris_2024\Celine Dion - Hymne À L'amour (Paris 2024 Olympics Opening Ceremony 26 July 2024] 4K HLG DD5.1 [azamusic].mkv<br>
Format : Matroska<br>
Format version : Version 4<br>
File size : 399 MiB<br>
Duration : 3 min 38 s<br>
Overall bit rate : 15.3 Mb/s<br>
Frame rate : 296.036 FPS<br>
Writing application : Lavf60.16.100<br>
Writing library : Lavf60.16.100<br>
ErrorDetectionType : Per level 1<br>
<br>
Video<br>
ID : 1<br>
Format : HEVC<br>
Format/Info : High Efficiency Video Coding<br>
Format profile : Main 10@L5.1@Main<br>
Codec ID : V_MPEGH/ISO/HEVC<br>
Duration : 3 min 38 s<br>
Bit rate : 15.0 Mb/s<br>
Width : 3 840 pixels<br>
Height : 2 160 pixels<br>
Display aspect ratio : 16:9<br>
Frame rate mode : Variable<br>
Frame rate : 296.036 FPS<br>
Original frame rate : 50.000 FPS<br>
Color space : YUV<br>
Chroma subsampling : 4:2:0<br>
Bit depth : 10 bits<br>
Bits/(Pixel*Frame) : 0.006<br>
Stream size : 2.25 GiB<br>
Default : Yes<br>
Forced : No<br>
Color range : Limited<br>
Color primaries : BT.2020<br>
Transfer characteristics : HLG<br>
Matrix coefficients : BT.2020 non-constant<br>
<br>
Audio<br>
ID : 2<br>
Format : AC-3<br>
Format/Info : Audio Coding 3<br>
Commercial name : Dolby Digital<br>
Codec ID : A_AC3<br>
Duration : 3 min 38 s<br>
Bit rate mode : Constant<br>
Bit rate : 384 kb/s<br>
Channel(s) : 6 channels<br>
Channel layout : L R C LFE Ls Rs<br>
Sampling rate : 48.0 kHz<br>
Frame rate : 31.250 FPS (1536 SPF)<br>
Bit depth : 32 bits<br>
Compression mode : Lossy<br>
Delay relative to video : -200 ms<br>
Stream size : 10.00 MiB (3%)<br>
Service kind : Complete Main<br>
Default : No<br>
Forced : No<br>
Dialog Normalization : -24 dB</div>
</div><br>
<div class="bbCodeBlock bbCodeVfcHH HiddenContent">
<div class="attribution type">Hidden Content:</div>
<blockquote>You must reply before you can see the hidden data contained here.</blockquote>
</div><img src="https://coast.aaronsouth.com/azamusic/cd_paris2024_4k.jpg" class="bbCodeImage LbImage" alt="[​IMG]" data-url="https://coast.aaronsouth.com/azamusic/cd_paris2024_4k.jpg" style="">
<div class="messageTextEndMarker">&nbsp;</div>
</blockquote>
</article>]]></description>
                <author><![CDATA[azamusic]]></author>
                </item>

                
                <item>
                <title><![CDATA[【Singles (lossless)】FLAC - Van Halen - A Apolitical Blues (2023 Remaster). FLAC, Hi-Res]]></title>
                <link><![CDATA[https://sharemania.us/threads/van-halen-a-apolitical-blues-2023-remaster-flac-hi-res.251138/]]></link>
                <description><![CDATA[<article>
<blockquote class="messageText SelectQuoteContainer ugc baseHtml">
<img src="https://lossless.ucoz.club/_ld/3/75253758.jpg" class="bbCodeImage LbImage" alt="[​IMG]" data-url="https://lossless.ucoz.club/_ld/3/75253758.jpg" style=""> <br>
<br>
Listen to and download - <a href="https://lossless.ucoz.club/load/id22/van_halen_a_apolitical_blues_2023_remaster_flac_hi_res/22-1-0-346" target="_blank" class="externalLink" rel="nofollow">https://lossless.ucoz.club/load/id2...al_blues_2023_remaster_flac_hi_res/22-1-0-346</a>
<div class="messageTextEndMarker">&nbsp;</div>
</blockquote>
</article>]]></description>
                <author><![CDATA[igorsm]]></author>
                </item>

                </channel></rss>